<?xml version="1.0" encoding="UTF-8" standalone="no"?>
<!-- Created with Inkscape (http://www.inkscape.org/) -->

<svg
   xmlns:dc="http://purl.org/dc/elements/1.1/"
   xmlns:cc="http://creativecommons.org/ns#"
   xmlns:rdf="http://www.w3.org/1999/02/22-rdf-syntax-ns#"
   xmlns:svg="http://www.w3.org/2000/svg"
   xmlns="http://www.w3.org/2000/svg"
   xmlns:xlink="http://www.w3.org/1999/xlink"
   xmlns:sodipodi="http://sodipodi.sourceforge.net/DTD/sodipodi-0.dtd"
   xmlns:inkscape="http://www.inkscape.org/namespaces/inkscape"
   width="191.90926mm"
   height="146.04887mm"
   viewBox="0 0 679.99343 517.49601"
   id="svg2"
   version="1.1"
   inkscape:version="0.91 r13725"
   sodipodi:docname="cozycloud.svg">
  <defs
     id="defs4">
    <linearGradient
       inkscape:collect="always"
       id="linearGradient4905">
      <stop
         style="stop-color:#1baaf4;stop-opacity:1"
         offset="0"
         id="stop4907" />
      <stop
         style="stop-color:#5dc6ef;stop-opacity:1"
         offset="1"
         id="stop4909" />
    </linearGradient>
    <linearGradient
       inkscape:collect="always"
       xlink:href="#linearGradient4905"
       id="linearGradient4911"
       x1="303"
       y1="199.3622"
       x2="304"
       y2="688.36218"
       gradientUnits="userSpaceOnUse"
       gradientTransform="translate(73,-170)" />
  </defs>
  <sodipodi:namedview
     id="base"
     pagecolor="#ffffff"
     bordercolor="#666666"
     borderopacity="1.0"
     inkscape:pageopacity="0.0"
     inkscape:pageshadow="2"
     inkscape:zoom="1"
     inkscape:cx="114.86797"
     inkscape:cy="193.32896"
     inkscape:document-units="px"
     inkscape:current-layer="layer1"
     showgrid="false"
     inkscape:window-width="1653"
     inkscape:window-height="1005"
     inkscape:window-x="27"
     inkscape:window-y="0"
     inkscape:window-maximized="1"
     fit-margin-top="0"
     fit-margin-left="0"
     fit-margin-right="0"
     fit-margin-bottom="0" />
  <metadata
     id="metadata7">
    <rdf:RDF>
      <cc:Work
         rdf:about="">
        <dc:format>image/svg+xml</dc:format>
        <dc:type
           rdf:resource="http://purl.org/dc/dcmitype/StillImage" />
        <dc:title></dc:title>
      </cc:Work>
    </rdf:RDF>
  </metadata>
  <g
     inkscape:label="Layer 1"
     inkscape:groupmode="layer"
     id="layer1"
     transform="translate(-33.660001,-14.842161)">
    <path
       style="fill:url(#linearGradient4911);fill-opacity:1"
       d="m 191.517,531.78201 c -3.21581,-0.42402 -12.86326,-2.59025 -21.43877,-4.81383 C 104.41858,509.94301 55.795957,461.84919 38.309763,396.6328 32.189498,373.80668 32.096114,330.86534 38.118416,308.64432 56.10199,242.28878 108.10099,190.88428 171.05272,177.22988 c 8.03954,-1.74379 15.90977,-3.82139 17.48941,-4.61688 1.57963,-0.79549 3.93671,-6.70651 5.23793,-13.13559 14.80577,-73.15198 73.39785,-130.10987 146.16693,-142.09018 60.82603,-10.01407 121.78123,9.90094 162.48144,53.08521 22.31354,23.67541 38.02586,51.86986 44.01397,78.97939 4.75067,21.50745 5.42079,22.67303 13.82931,24.05457 71.56634,11.75849 127.01602,60.07316 148.04849,128.9983 4.74627,15.55391 5.24056,20.12768 5.32803,49.30254 0.0758,25.27463 -0.65786,34.86986 -3.42734,44.82654 -11.82986,42.52977 -39.26859,80.96311 -75.04361,105.11328 -15.28377,10.31741 -31.91421,17.96001 -54.28517,24.94694 l -17.11999,5.34695 -183.20409,0.256 C 279.80578,532.43767 194.73282,532.20615 191.517,531.78201 Z M 576.44049,489.53567 C 640.74294,468.10362 682.01358,407.9051 677.05681,342.7739 672.68403,285.31613 633.11709,235.07389 578.38947,217.48571 c -6.96761,-2.23922 -21.1393,-4.87112 -31.49265,-5.84867 -28.0306,-2.64659 -31.58082,-5.6798 -33.56036,-28.67314 -0.65815,-7.64471 -3.04078,-19.92328 -5.29473,-27.28572 -26.951,-88.0345 -126.66275,-128.58311 -206.40738,-83.93727 -17.4014,9.74235 -42.72218,34.20644 -52.35984,50.58834 -9.31766,15.83794 -17.59747,41.30036 -19.06137,58.61837 -0.75089,8.88283 -2.66454,17.15516 -4.76914,20.61589 -3.79244,6.23617 -13.12915,9.88738 -25.33207,9.90632 -12.01095,0.0195 -36.32022,7.33378 -53.00578,15.95043 -22.26575,11.49836 -47.94677,37.116 -59.35295,59.20646 -11.863679,22.9765 -16.63147,42.27003 -16.588949,67.1295 0.04155,24.29552 3.530132,39.45797 14.125269,61.39286 19.77579,40.9414 59.94807,71.18923 104.79184,78.90333 5.07736,0.87342 90.35784,1.45681 189.51218,1.29643 l 180.28062,-0.29159 16.56633,-5.52158 z M 346.94926,375.1149 c -14.25704,-2.55917 -31.797,-10.0263 -45.46274,-19.35444 -11.13574,-7.6012 -11.77737,-7.78947 -16.34541,-4.79638 -5.43677,3.56232 -12.74145,2.16256 -12.74145,-2.44159 0,-1.66215 2.61845,-6.00434 5.81878,-9.6493 3.20032,-3.64498 6.32221,-9.02301 6.93751,-11.95118 1.78581,-8.49847 3.91374,-11.17089 8.89491,-11.17089 4.30958,0 4.66003,0.75328 4.66003,10.01688 0,12.34275 2.6272,15.55648 20.31612,24.85175 37.06901,19.47921 79.25337,16.85318 112.47035,-7.00146 8.84905,-6.35492 8.9315,-6.51777 7.86353,-15.53508 -1.87275,-15.81258 9.26771,-19.00255 13.63877,-3.90531 1.33844,4.62287 5.10303,11.44558 8.36576,15.16162 6.80938,7.75546 7.10155,9.07098 2.80628,12.63575 -2.62875,2.18166 -4.0755,2.04931 -9.09628,-0.83222 -5.90915,-3.3914 -6.0519,-3.36823 -13.92764,2.26015 -10.91433,7.79988 -25.37823,14.89183 -38.16648,18.7138 -13.13075,3.92432 -42.2049,5.47988 -56.03204,2.9979 z"
       id="path4095"
       inkscape:connector-curvature="0" />
    <path
       style="fill:#000000"
       d=""
       id="path4093"
       inkscape:connector-curvature="0" />
    <path
       style="fill:#000000"
       d=""
       id="path4091"
       inkscape:connector-curvature="0" />
  </g>
</svg>
