<?xml version="1.0" encoding="UTF-8" standalone="no"?>
<!-- Generator: Adobe Illustrator 18.0.0, SVG Export Plug-In . SVG Version: 6.00 Build 0)  -->
<svg xmlns:dc="http://purl.org/dc/elements/1.1/" xmlns:cc="http://creativecommons.org/ns#" xmlns:rdf="http://www.w3.org/1999/02/22-rdf-syntax-ns#" xmlns:svg="http://www.w3.org/2000/svg" xmlns="http://www.w3.org/2000/svg" xmlns:sodipodi="http://sodipodi.sourceforge.net/DTD/sodipodi-0.dtd" xmlns:inkscape="http://www.inkscape.org/namespaces/inkscape" version="1.1" id="Calque_1_-_copie_4" x="0px" y="0px" viewBox="0 0 379.9125 320.2" enable-background="new 0 0 960 560" xml:space="preserve" inkscape:version="0.48.5 r10040" width="100%" height="100%" sodipodi:docname="logo-full-black.svg"><metadata id="metadata103"><rdf:RDF><cc:Work rdf:about=""><dc:format>image/svg+xml</dc:format><dc:type rdf:resource="http://purl.org/dc/dcmitype/StillImage"/></cc:Work></rdf:RDF></metadata><defs id="defs101"/><sodipodi:namedview pagecolor="#ffffff" bordercolor="#666666" borderopacity="1" objecttolerance="10" gridtolerance="10" guidetolerance="10" inkscape:pageopacity="0" inkscape:pageshadow="2" inkscape:window-width="1091" inkscape:window-height="681" id="namedview99" showgrid="false" fit-margin-top="0" fit-margin-left="0" fit-margin-right="0" fit-margin-bottom="0" inkscape:zoom="0.34166667" inkscape:cx="189.9125" inkscape:cy="160.1" inkscape:window-x="0" inkscape:window-y="0" inkscape:window-maximized="0" inkscape:current-layer="Calque_1_-_copie_4"/><g style="fill:#000000" id="g3" transform="translate(-290.0875,-119.9)"><g id="g5"><g id="g7"><path d="m 454,149 c 0,2.7 -0.6,5.4 -0.9,8.1 -0.6,3.9 -0.9,7.5 -0.9,11.4 v 48.3 c 0,5.7 -1.8,11.4 -5.1,16.5 -1.8,2.4 -3.6,4.2 -6.3,5.7 -2.4,1.8 -5.1,2.4 -8.4,2.4 -5.7,0 -10.5,-2.4 -14.7,-6.3 -2.1,-1.8 -3.9,-3.9 -5.7,-6.3 -1.8,-2.1 -3.6,-4.2 -5.1,-6.3 -3,-4.2 -8.4,-11.4 -16.8,-21.3 -3.9,-4.5 -7.5,-8.7 -10.8,-11.7 -3.3,-3.3 -5.7,-4.8 -7.5,-5.1 0,8.4 0,17.1 -0.3,25.5 0,3 -0.3,6.3 -0.3,9.6 0,2.7 0.3,5.4 1.2,8.1 0.9,2.7 1.2,5.4 1.2,8.1 0,1.8 -0.6,3.6 -1.8,5.1 -1.5,1.5 -3.3,3 -5.4,4.5 -4.5,2.7 -8.4,4.2 -12,4.2 -0.9,-0.3 -1.5,-1.2 -1.8,-2.4 -0.9,-2.7 -1.5,-5.7 -2.1,-8.7 -0.6,-3 -0.9,-5.7 -1.2,-8.7 -1.2,-9.6 -2.4,-19.2 -3.6,-28.8 -1.5,-10.5 -3.3,-21 -5.1,-31.5 -0.6,-3 -1.2,-6 -1.8,-9.3 -0.6,-3.3 -1.2,-6.6 -1.2,-9.3 0,-1.8 0.6,-3.6 1.8,-5.4 0.9,-1.8 2.4,-3.6 3.9,-5.1 3.6,-3.3 7.2,-4.8 10.5,-5.1 2.4,0 5.1,0.3 7.5,1.2 2.4,0.9 4.5,2.4 5.7,4.8 2.1,3.3 5.1,6 8.4,7.8 2.4,1.5 4.5,3.3 6.3,5.4 1.8,2.4 3.3,4.8 5.1,6.9 12,15.6 24.3,31.2 36.6,46.5 0.6,-0.6 1.2,-1.5 1.5,-3 0.3,-1.2 0.3,-2.7 0.3,-4.2 0,-3.6 0,-6.3 0,-7.8 v -35.1 c 0.3,-12.9 6.6,-19.5 19.2,-19.8 2.1,0 4.2,1.5 6,3.6 2.7,3 3.6,5.5 3.6,7.5 z" id="path9" inkscape:connector-curvature="0"/><path d="m 543.4,174.5 c 0,10.8 -3,21.6 -8.7,33 -5.7,11.7 -13.2,20.4 -22.2,26.1 -2.7,1.5 -7.5,3.9 -14.4,6.9 -3.3,1.2 -6,2.4 -8.7,3.3 -2.7,1.2 -4.5,1.8 -5.7,1.8 -1.2,0 -1.8,-0.6 -2.4,-1.8 -0.6,-0.9 -0.9,-1.8 -1.2,-2.7 -0.6,-3 -1.2,-6.3 -1.5,-9.9 -0.6,-3.3 -0.9,-6.6 -1.2,-9.9 -1.5,-11.4 -2.7,-22.8 -3.6,-34.5 -1.2,-10.8 -2.1,-21.6 -2.7,-32.4 -0.9,-7.5 -1.2,-15.3 -1.2,-22.8 0,-2.4 0.3,-3.9 0.9,-4.8 0.6,-0.9 1.8,-1.8 3.3,-2.7 5.7,-2.7 11.7,-4.2 18,-4.2 10.5,0 19.8,3.6 27.9,10.2 7.8,6.3 13.8,14.4 18,24 3.6,6.9 5.1,13.6 5.4,20.4 z m -24,2.5 c -0.3,-14.1 -6.9,-23.7 -20.1,-28.5 -1.5,-0.6 -2.7,-0.9 -4.2,-1.2 -1.5,0 -2.4,0.9 -2.4,2.4 0,0.9 0,1.5 0.3,2.4 1.8,10.8 3,21.6 3,33 0.3,6 0.3,11.7 0.6,17.4 0,3.3 -0.3,6.3 -0.3,9.6 0,0.6 0,1.2 0.3,2.1 0,0.9 0.6,1.8 1.2,2.1 6,-4.8 11.1,-10.5 15.3,-17.4 4.2,-6.9 6.3,-14.1 6.3,-21.9 z" id="path11" inkscape:connector-curvature="0"/><path d="m 665.8,135 c -1.5,-0.9 -3.6,-1.5 -6.3,-1.8 -5.4,-0.6 -9.6,-0.9 -12.3,-0.9 -5.4,0 -11.1,0.9 -16.8,2.7 -5.7,1.8 -11.4,3 -17.1,4.2 -0.9,0 -1.8,0.3 -2.4,0.6 -0.6,0 -1.5,0.6 -1.8,1.2 -0.9,0.9 -1.5,2.4 -1.5,4.5 0,1.5 0,3 0.3,4.5 -0.3,18.9 -1.2,37.5 -3,56.1 -0.6,6.9 -0.9,13.8 -0.9,20.7 0,2.7 0.3,5.4 0.9,8.1 0.6,2.7 1.8,5.1 3.9,7.2 3,2.7 7.5,5.4 13.5,8.1 3,1.2 5.7,2.4 8.7,3 2.7,0.6 4.8,1.2 6.6,1.2 5.7,0 9.9,-2.1 13.2,-5.7 3.3,-3.6 4.8,-8.1 4.8,-13.8 0,-1.8 0,-3 -0.3,-3.9 -0.3,-0.6 -1.2,-0.9 -3,-0.9 -8.4,0 -15,-1.5 -19.8,-5.1 -5.1,-3.3 -7.8,-9.6 -7.8,-18.6 0,-3 0.3,-6 0.6,-8.7 h 15.3 c 2.1,0 4.8,-0.9 7.8,-2.4 1.5,-0.6 2.7,-1.5 3.6,-2.7 1.2,-1.5 1.5,-3.3 2.4,-4.8 0.9,-1.5 0.9,-2.4 -0.6,-4.2 -1.2,-1.2 -2.1,-1.2 -3.6,-1.5 -3.3,0 -6,-0.3 -8.7,-0.3 -4.8,0 -9.9,0 -15,0.3 0.3,-11.1 0.6,-21.9 0.6,-32.7 1.2,-0.3 2.7,-0.3 3.9,-0.3 3.3,0 6.6,0.3 9.9,0.6 3.3,0.6 6.6,0.9 9.9,0.9 0.9,0 2.1,0 3.3,-0.3 1.2,-0.3 2.1,-0.6 2.7,-0.9 l 11.1,-8.7 c 0.6,-0.6 0.9,-1.5 0.9,-2.4 -0.3,-1.3 -1.2,-2.4 -3,-3.3 z" id="path13" inkscape:connector-curvature="0"/><g id="g15"><path d="m 584.2,208.8 c -0.3,4.5 -4.8,16.8 -12.3,14.7 -6.6,-1.8 -10.2,-10.8 -10.8,-16.5 -1.5,-13.5 1.5,-31.5 0.9,-44.7 -1.2,-10.8 -1.5,-21.3 -0.6,-32.1 0.3,-3.3 1.5,-5.4 4.2,-6.6 2.4,-1.5 4.8,-1.8 7.5,-1.8 2.7,0.3 9.3,1.5 10.5,3.3 1.2,1.8 1.5,4.2 1.2,7.2 -0.6,7.8 -1.2,15.6 -1.8,23.4 -0.3,6 -0.6,12 -0.6,18.3 0.3,3.9 0.6,8.4 1.5,12.9 0.3,5.1 0.6,18 0.3,21.9 z m 3.3,38.1 c -0.3,3.3 -2.1,6.3 -4.5,8.4 -2.7,2.1 -10.2,3 -13.8,3 -3,-0.6 -4.8,-2.1 -5.1,-5.4 -0.3,-2.7 -0.6,-5.4 0,-8.1 0.3,-3 1.5,-5.7 3.6,-7.8 2.1,-1.8 9,-2.7 12,-2.4 3,0.3 5.1,1.8 6.3,4.2 1.2,2.4 1.8,5.1 1.5,8.1 z" id="path17" inkscape:connector-curvature="0"/></g><g id="g19"><path d="m 296.5,175.8 c 0.3,-4.5 0.3,-17.7 5.1,-19.2 9.3,-2.7 17.4,10.5 18,16.2 1.5,13.5 -1.5,31.5 -0.9,44.7 1.2,10.8 1.5,21.3 0.6,32.1 -0.3,3.3 -1.5,5.4 -4.2,6.6 -2.4,1.5 -9.3,1.8 -12,1.8 -2.7,-0.3 -4.8,-1.5 -6,-3.3 -1.2,-1.8 -1.5,-4.2 -1.2,-7.2 0.6,-7.8 1.2,-15.6 1.8,-23.4 0.3,-6 0.6,-12 0.6,-18.3 -0.3,-3.9 -0.6,-8.4 -1.5,-12.9 -0.6,-4.9 -0.6,-13.5 -0.3,-17.1 z m -3.3,-42.6 c 0.3,-3.3 2.1,-6.3 4.5,-8.4 2.7,-2.1 5.7,-3 9.3,-3 3,0.6 9.3,2.1 9.6,5.4 0.3,2.7 0.6,5.4 0,8.1 -0.3,3 -1.5,5.7 -3.6,7.8 -2.1,1.8 -9,2.7 -12,2.4 -3,-0.3 -5.1,-1.8 -6.3,-4.2 -1.2,-2.4 -1.8,-5.1 -1.5,-8.1 z" id="path21" inkscape:connector-curvature="0"/></g></g><g id="g23"><path d="m 403.9,317 c 0,4.2 -0.3,8.4 -0.9,13.2 -0.6,4.8 -2.1,9 -3.9,13.2 -1.8,4.2 -4.2,7.5 -7.5,9.9 -3.3,2.7 -7.5,4.2 -12.9,4.2 -11.1,0 -18.9,-3.3 -22.8,-9.9 -3.9,-6.3 -6,-14.7 -5.7,-25.2 0,-7.5 0.9,-15 3.3,-22.2 2.4,-7.2 6.9,-12.9 13.5,-16.8 3.9,-2.4 7.8,-3.3 12.3,-3.3 4.2,0 7.8,1.2 11.1,3.9 3,2.4 5.4,5.7 7.5,9.6 3.9,7.9 6,15.9 6,23.4 z m -18.3,9.7 c 0,-3 -0.6,-6 -1.2,-9 -0.3,-2.1 -1.5,-6 -3,-12 -0.6,-2.7 -1.5,-4.8 -2.4,-6.9 -0.9,-1.8 -1.8,-2.7 -2.4,-2.7 -2.1,0 -3.6,0.9 -4.8,2.1 -1.2,1.5 -2.1,3 -2.4,5.4 -0.9,4.8 -1.2,8.7 -1.2,12 0,2.1 0.3,4.5 0.6,7.2 0.3,3 0.9,6 1.8,8.7 0.9,2.7 2.1,5.4 3.9,7.2 1.8,2.1 4.2,3.3 6.9,3.3 0.9,0 1.8,-0.6 2.4,-2.1 0.6,-1.5 0.9,-3 1.5,-4.8 0,-3.9 0.3,-6.6 0.3,-8.4 z" id="path25" inkscape:connector-curvature="0"/><path d="m 414.4,301.8 c 0,-2.7 0.9,-5.4 3,-8.1 1.8,-3 3.6,-5.4 5.4,-7.5 1.5,-1.8 3.6,-4.5 6.6,-7.8 1.5,-1.5 2.7,-2.7 4.2,-3.6 3,-2.1 8.4,-2.1 9.9,1.8 0.6,1.2 1.2,2.1 1.2,2.7 0,1.2 -0.9,2.7 -2.4,4.2 -1.5,1.5 -3,3.3 -4.8,5.1 -2.1,1.8 -3.6,3.9 -5.1,6 -1.2,1.8 -2.1,3.9 -2.1,6 0,1.8 0.9,3.9 2.7,6.6 1.8,2.4 4.2,4.8 6.6,7.8 2.4,3 4.5,6 6.3,9.3 2.1,3.3 3,6.9 3,10.5 0,6.3 -2.4,12.9 -6.9,19.5 -2.1,3.3 -4.5,6 -7.5,7.8 -2.7,2.1 -5.7,3 -8.7,3 -0.6,0 -1.5,-0.3 -2.1,-1.2 -0.6,-0.6 -1.5,-1.5 -2.1,-2.7 -1.2,-2.4 -2.1,-4.2 -2.1,-5.7 0,-0.6 0.3,-1.2 0.6,-1.8 0.6,-0.9 1.2,-1.5 1.8,-1.5 0.9,0 1.8,-0.6 2.7,-1.5 0.9,-1.2 1.8,-2.4 2.7,-4.2 1.8,-3.6 3,-6.3 3.6,-7.8 0.6,-2.4 1.2,-4.8 1.2,-7.2 0,-3 -0.9,-6 -2.7,-8.4 -1.8,-2.4 -3.6,-4.8 -6,-7.2 -2.4,-2.1 -4.2,-4.5 -6,-6.6 -2.1,-2.1 -3,-4.8 -3,-7.5 z" id="path27" inkscape:connector-curvature="0"/><path d="m 516.4,286.2 c 0,2.7 -0.6,4.8 -1.8,6.3 -1.2,1.5 -2.7,2.7 -4.8,3 -2.1,0.6 -4.2,0.9 -6.6,0.9 -2.4,0.3 -4.5,0.3 -6.6,0.3 -1.8,0 -3.9,0 -5.7,0 -0.3,3 -0.6,5.7 -1.2,8.7 -0.6,3 -0.9,6 -1.2,9 l -0.6,25.2 c 0,1.8 0,3.9 0,6.3 0,2.4 -0.3,5.1 -0.9,7.2 -0.6,2.4 -1.5,4.2 -2.7,5.7 -1.2,1.5 -3.3,2.4 -6,2.7 -0.6,0.3 -1.2,0.3 -1.8,0.3 -0.9,0 -1.5,-0.6 -1.8,-1.8 -0.3,-0.9 -0.6,-1.8 -0.6,-2.4 0,-4.5 0.3,-9 0.9,-13.5 0.9,-10.8 1.5,-21.6 1.5,-32.1 0,-5.7 -0.6,-11.4 -1.5,-17.1 -1.5,-0.3 -3.6,-0.9 -6,-1.5 -2.4,-0.6 -5.1,-1.2 -7.5,-2.1 -2.4,-0.9 -4.5,-2.4 -6.3,-3.9 -1.8,-1.5 -2.7,-3.3 -2.7,-5.1 0,-0.9 0.3,-2.1 1.2,-2.7 0.6,-0.9 1.5,-1.2 2.4,-1.2 h 5.1 c 0.3,-0.3 0.9,-0.6 1.8,-0.9 0.9,-0.3 1.8,-0.3 2.7,-0.3 2.1,0 3.6,0 4.5,0 6.6,0 13.2,0.6 20.1,1.2 3.9,0.3 7.8,0.6 11.7,1.2 1.8,0.9 3.3,1.2 5.1,1.5 1.8,-0.3 3.3,-0.3 5.1,-0.6 1.5,0 2.4,0.6 3.3,1.8 0.6,1.2 0.9,2.4 0.9,3.9 z" id="path29" inkscape:connector-curvature="0"/><path d="m 567.1,359.4 c -1.2,0.6 -2.4,0.9 -4.2,1.2 -3.6,0.3 -6.6,0.6 -8.4,0.6 -3.6,0 -7.5,-0.6 -11.4,-1.8 -3.9,-1.2 -7.8,-2.1 -11.7,-2.7 -0.6,0 -1.2,-0.3 -1.5,-0.3 -0.6,0 -0.9,-0.3 -1.2,-0.9 -0.6,-0.6 -0.9,-1.5 -0.9,-3.3 0,-0.9 0,-2.1 0,-3.3 -0.3,-12.9 -0.9,-25.8 -2.1,-38.4 -0.3,-4.8 -0.6,-9.6 -0.6,-14.1 0,-1.8 0.3,-3.6 0.6,-5.7 0.6,-1.8 1.2,-3.6 2.7,-5.1 2.1,-1.8 5.1,-3.6 9.3,-5.4 2.1,-0.9 3.9,-1.5 6,-2.1 1.8,-0.6 3.3,-0.9 4.5,-0.9 3.9,0 6.9,1.5 9,3.9 2.1,2.4 3.3,5.7 3.3,9.6 0,1.2 0,2.1 0,2.7 -0.3,0.6 -0.9,0.6 -2.1,0.6 -5.7,0 -10.2,1.2 -13.5,3.6 -3.6,2.4 -5.1,6.6 -5.1,12.9 0,2.1 0,3.9 0.3,6 h 10.5 c 1.5,0 3.3,0.6 5.4,1.5 2.1,0.9 6.6,3 5.7,6 -0.3,0.9 -0.9,1.8 -1.8,2.1 -2.4,1.2 -6,0.9 -8.7,0.9 -3.3,0 -6.9,0 -10.2,-0.3 0.3,7.5 0.3,15 0.3,22.5 0.9,0.3 1.8,0.3 2.7,0.3 2.4,0 4.5,-0.3 6.9,-0.6 2.4,-0.6 4.5,-0.6 6.9,-0.6 0.6,0 1.2,0 2.1,0 0.9,0.3 1.5,0.3 1.8,0.6 l 7.8,6 c 0.3,0.6 0.6,1.2 0.6,1.8 -1.2,1.2 -1.8,2 -3,2.7 z" id="path31" inkscape:connector-curvature="0"/><path d="m 630.4,354 c 0,2.7 -6.6,4.8 -8.7,4.8 -0.9,0 -2.1,-0.6 -3,-1.2 -0.9,-0.9 -2.1,-1.8 -3.3,-3 -2.4,-2.7 -4.5,-5.7 -6.6,-8.7 -2.1,-3.3 -4.2,-6.3 -6.3,-8.7 -2.1,-2.4 -3.9,-3.9 -5.4,-3.9 v 18.9 c 0,0.6 -0.3,1.8 -1.2,3.3 -0.6,1.5 -1.8,3 -3,4.8 -1.2,1.5 -2.4,3 -3.6,4.2 -1.2,1.2 -2.4,1.8 -3.3,2.1 -6,0 -9,-3.3 -9,-9.6 0,-3 0.3,-6 0.9,-9 0.6,-4.5 0.6,-8.7 0.6,-12.9 0,-11.4 -0.6,-22.8 -1.5,-33.9 -0.6,-5.7 -0.9,-11.1 -0.9,-16.8 0,-9 8.1,-15.6 16.5,-15.6 5.7,0 12,1.2 18.3,3.9 3,1.5 5.4,3.3 7.5,5.4 1.8,2.4 2.7,5.1 2.7,8.7 0,3.3 -0.9,6.9 -2.7,9.9 -1.8,3.3 -3.6,6.3 -6,9 -2.1,2.7 -4.2,5.1 -6,7.2 -1.8,2.1 -2.7,3.6 -2.7,4.8 0,0.3 0.6,0.9 1.5,1.8 0.9,0.9 2.1,1.8 3.3,2.7 2.7,2.1 4.8,3.6 6,4.5 2.1,1.8 4.2,3.9 6,6 1.8,1.8 3,3.9 3.9,6 0.9,2.1 1.5,4.5 2.4,6.9 0.6,0.9 1.2,2.4 1.8,4.2 1.2,1.7 1.8,3.2 1.8,4.2 z m -21.9,-65.5 c 0,-1.8 -0.6,-3 -1.5,-3.6 -0.9,-0.6 -2.1,-0.6 -3.6,-0.6 -1.2,0 -2.7,0.3 -4.2,0.9 -1.5,0.6 -3,1.2 -4.2,1.8 l 0.6,23.4 c 1.2,-0.6 2.7,-1.8 4.2,-3.6 1.5,-1.8 3,-3.9 4.2,-6 3,-5.3 4.5,-9.3 4.5,-12.3 z" id="path33" inkscape:connector-curvature="0"/><path d="m 670,336.5 c 0,2.7 -0.9,5.4 -3,8.1 -1.8,3 -3.6,5.4 -5.4,7.5 -1.5,1.8 -3.6,4.5 -6.6,7.8 -1.5,1.5 -2.7,2.7 -4.2,3.9 -5.7,4.2 -14.4,-2.4 -8.7,-8.4 1.5,-1.5 3,-3.3 4.8,-5.1 2.1,-1.8 3.6,-3.9 5.1,-6 1.2,-1.8 2.1,-3.9 2.1,-6 0,-1.8 -0.9,-3.9 -2.7,-6.6 -1.8,-2.4 -4.2,-4.8 -6.6,-7.8 -2.4,-3 -4.5,-6 -6.3,-9.3 -2.1,-3.3 -3,-6.9 -3,-10.5 0,-6.3 2.4,-12.9 6.9,-19.5 2.1,-3.3 4.5,-6 7.5,-7.8 2.7,-2.1 5.7,-3 8.7,-3 0.6,0 1.5,0.3 2.1,1.2 0.6,0.6 1.5,1.5 2.1,2.7 1.2,2.4 2.1,4.2 2.1,5.7 0,2.4 -3,3.3 -4.5,4.5 -3.6,3 -5.7,8.1 -6.9,12.3 -0.6,2.4 -1.2,4.8 -1.2,7.2 0,3 0.9,6 2.7,8.4 1.8,2.4 3.6,4.8 6,7.2 2.4,2.1 4.2,4.5 6,6.6 2.1,1.6 3,3.9 3,6.9 z" id="path35" inkscape:connector-curvature="0"/><path d="m 336.7,280.2 c 0.3,-1.8 0,-3.6 -0.9,-4.8 -0.9,-1.2 -5.4,-2.1 -7.2,-2.1 -1.8,-0.3 -3.6,0.3 -5.1,1.2 -1.8,0.9 -2.7,2.4 -2.7,4.2 -0.6,6.9 -0.3,13.8 0.6,20.7 0.3,1.5 0,3.3 0,4.8 0,1.5 0,3.6 -0.6,5.1 -0.6,1.2 -2.7,1.5 -4.2,1.8 -2.1,0.3 -4.2,0.6 -6.3,0.6 -2.1,0 -3.9,-0.3 -3.9,-2.4 0,-0.3 0,-0.9 0,-1.2 0,-7.8 0.6,-15.9 0,-23.7 0,-0.3 0,-0.6 0,-1.2 -0.6,-3.6 -6,-9.3 -12.3,-7.5 -3.3,0.9 -3.3,9.6 -3.6,12.3 -0.3,2.4 0,28.2 0.3,31.2 0.6,3 0.9,5.7 0.9,8.1 0,3.9 0,8.1 -0.3,11.7 -0.3,5.1 -0.6,10.2 -1.2,15 -0.3,1.8 0,3.6 0.9,4.8 0.9,1.2 2.1,2.1 4.2,2.1 1.8,0.3 6.6,-0.3 8.4,-1.2 1.8,-0.9 2.7,-2.4 2.7,-4.2 0.6,-6.9 0.3,-13.8 -0.6,-20.7 -0.3,-1.2 0,-2.4 0,-3.6 0,-0.9 0,-2.1 0.3,-3 0.6,-0.9 1.5,-1.2 2.7,-1.5 1.2,-0.3 2.4,-0.6 3.6,-0.6 1.8,-0.3 3.9,-0.3 6,0 2.1,0.3 2.7,1.2 2.7,3 -0.3,2.4 0,4.8 -0.3,6.9 0,3.6 0,7.2 0,11.1 0,0.6 0,0.9 0,1.5 0.3,3.6 3,9.3 7.5,10.5 5.1,1.2 8.1,-6.6 8.4,-9.6 0.3,-2.4 0,-30.9 -0.3,-34.2 -0.6,-3 -0.9,-5.7 -0.9,-8.1 0,-3.9 0,-8.1 0.3,-11.7 0,-5.5 0.3,-10.5 0.9,-15.3 z" id="path37" inkscape:connector-curvature="0"/></g></g><g id="g39"><path d="m 319.3,411.9 v -17.7 h 3 v 7.8 h 8.7 v -7.8 h 3 v 17.7 h -3 v -7.2 h -8.7 v 7.2 h -3 z" id="path41" inkscape:connector-curvature="0"/><path d="m 353.8,409.5 c -1.8,1.8 -3.9,2.7 -6.6,2.7 -2.7,0 -4.8,-0.9 -6.6,-2.7 -1.8,-1.8 -2.7,-3.9 -2.7,-6.6 0,-2.7 0.9,-4.8 2.7,-6.6 1.8,-1.8 3.9,-2.7 6.6,-2.7 2.7,0 4.8,0.9 6.6,2.7 1.8,1.8 2.7,3.9 2.7,6.6 0,2.6 -0.9,4.8 -2.7,6.6 z m -2.1,-11.1 c -1.2,-1.2 -2.7,-1.8 -4.5,-1.8 -1.8,0 -3.3,0.6 -4.5,1.8 -1.2,1.2 -1.8,2.7 -1.8,4.5 0,1.8 0.6,3.3 1.8,4.5 1.2,1.2 2.7,1.8 4.5,1.8 1.8,0 3.3,-0.6 4.5,-1.8 1.2,-1.2 1.8,-2.7 1.8,-4.5 0,-1.5 -0.6,-3 -1.8,-4.5 z" id="path43" inkscape:connector-curvature="0"/><path d="m 366.1,396.5 c -0.9,0 -1.5,0.3 -2.1,0.6 -0.6,0.3 -0.9,0.9 -0.9,1.5 0,0.6 0.3,1.2 0.9,1.5 0.6,0.3 1.8,0.9 3.6,1.2 1.8,0.3 3.3,1.2 4.2,1.8 0.9,0.9 1.5,2.1 1.5,3.6 0,1.5 -0.6,2.7 -1.8,3.9 -1.2,1.2 -2.7,1.5 -4.5,1.5 -2.7,0 -5.1,-0.9 -7.5,-3 l 1.8,-2.4 c 1.8,1.5 3.6,2.4 5.7,2.4 0.9,0 1.8,-0.3 2.4,-0.6 0.6,-0.3 0.9,-0.9 0.9,-1.5 0,-0.6 -0.3,-1.2 -0.9,-1.5 -0.6,-0.3 -1.5,-0.6 -2.7,-0.9 -1.2,-0.3 -2.4,-0.6 -3,-0.9 -0.6,-0.3 -1.2,-0.6 -1.8,-0.9 -0.9,-0.9 -1.5,-2.1 -1.5,-3.6 0,-1.5 0.6,-3 1.8,-3.9 1.2,-0.9 2.7,-1.2 4.5,-1.2 1.2,0 2.4,0.3 3.3,0.6 1.2,0.3 2.1,0.9 3,1.5 l -1.5,2.4 c -0.6,-0.6 -1.2,-0.9 -2.1,-1.2 -1.8,-0.5 -2.7,-0.9 -3.3,-0.9 z" id="path45" inkscape:connector-curvature="0"/><path d="m 383.5,397.2 v 15 h -3 v -15 h -5.4 v -2.7 h 13.8 v 2.7 h -5.4 z" id="path47" inkscape:connector-curvature="0"/><path d="m 392.2,394.2 h 3 v 17.7 h -3 v -17.7 z" id="path49" inkscape:connector-curvature="0"/><path d="m 413.8,394.2 h 3 v 17.7 h -3.3 L 403.6,399 v 12.9 h -3 v -17.7 h 3 l 10.2,13.2 v -13.2 z" id="path51" inkscape:connector-curvature="0"/><path d="m 434.2,403.5 h 3 v 6 c -1.8,1.8 -4.2,2.7 -7.2,2.7 -2.7,0 -4.8,-0.9 -6.6,-2.7 -1.8,-1.8 -2.7,-3.9 -2.7,-6.6 0,-2.7 0.9,-4.8 2.7,-6.6 1.8,-1.8 3.9,-2.7 6.6,-2.7 2.4,0 4.8,0.6 6.3,2.1 l -1.5,2.4 c -0.6,-0.6 -1.5,-0.9 -2.1,-1.2 -0.6,-0.3 -1.5,-0.3 -2.4,-0.3 -1.8,0 -3.3,0.6 -4.5,1.8 -1.2,1.2 -1.8,2.7 -1.8,4.5 0,1.8 0.6,3.3 1.8,4.5 1.2,1.2 2.7,1.8 4.2,1.8 1.8,0 3,-0.3 4.2,-1.2 v -4.5 z" id="path53" inkscape:connector-curvature="0"/><path d="m 451.6,397.2 v 4.8 h 7.8 v 2.7 h -7.8 v 7.2 h -3 v -17.7 h 11.7 v 2.7 h -8.7 v 0.3 z" id="path55" inkscape:connector-curvature="0"/><path d="m 478.9,409.5 c -1.8,1.8 -3.9,2.7 -6.6,2.7 -2.7,0 -4.8,-0.9 -6.6,-2.7 -1.8,-1.8 -2.7,-3.9 -2.7,-6.6 0,-2.7 0.9,-4.8 2.7,-6.6 1.8,-1.8 3.9,-2.7 6.6,-2.7 2.7,0 4.8,0.9 6.6,2.7 1.8,1.8 2.7,3.9 2.7,6.6 0,2.6 -0.9,4.8 -2.7,6.6 z m -2.4,-11.1 c -1.2,-1.2 -2.7,-1.8 -4.5,-1.8 -1.8,0 -3.3,0.6 -4.5,1.8 -1.2,1.2 -1.8,2.7 -1.8,4.5 0,1.8 0.6,3.3 1.8,4.5 1.2,1.2 2.7,1.8 4.5,1.8 1.8,0 3.3,-0.6 4.5,-1.8 1.2,-1.2 1.8,-2.7 1.8,-4.5 0,-1.5 -0.6,-3 -1.8,-4.5 z" id="path57" inkscape:connector-curvature="0"/><path d="m 499.6,400.2 c 0,3 -1.2,4.8 -3.9,5.4 l 4.5,6.3 h -3.9 l -4.2,-6 h -3.9 v 6 h -3 v -17.7 h 6.6 c 2.7,0 4.5,0.6 5.7,1.5 1.5,0.8 2.1,2.3 2.1,4.5 z m -3.9,2.3 c 0.6,-0.6 0.9,-1.5 0.9,-2.4 0,-1.2 -0.3,-1.8 -0.9,-2.4 -0.6,-0.3 -1.8,-0.6 -3.3,-0.6 h -3.9 v 6.3 h 3.6 c 1.8,0.1 3,-0.2 3.6,-0.9 z" id="path59" inkscape:connector-curvature="0"/><path d="m 514.3,397.2 v 4.8 h 7.8 v 2.7 h -7.8 v 7.2 h -3 V 394.2 H 523 v 2.7 h -8.7 v 0.3 z" id="path61" inkscape:connector-curvature="0"/><path d="m 541,400.2 c 0,3 -1.2,4.8 -3.9,5.4 l 4.5,6.3 H 538 l -4.2,-6 h -3.9 v 6 h -3 v -17.7 h 6.6 c 2.7,0 4.5,0.6 5.7,1.5 1.2,0.8 1.8,2.3 1.8,4.5 z m -3.9,2.3 c 0.6,-0.6 0.9,-1.5 0.9,-2.4 0,-1.2 -0.3,-1.8 -0.9,-2.4 -0.6,-0.3 -1.8,-0.6 -3.3,-0.6 h -3.9 v 6.3 h 3.6 c 1.8,0.1 3,-0.2 3.6,-0.9 z" id="path63" inkscape:connector-curvature="0"/><path d="m 558.1,394.2 v 2.7 h -9.3 v 4.8 h 8.4 v 2.7 h -8.4 v 4.8 h 9.6 v 2.7 h -12.6 v -17.7 h 12.3 z" id="path65" inkscape:connector-curvature="0"/><path d="m 574.9,394.2 v 2.7 h -9.3 v 4.8 h 8.4 v 2.7 h -8.4 v 4.8 h 9.6 v 2.7 h -12.6 v -17.7 h 12.3 z" id="path67" inkscape:connector-curvature="0"/><path d="m 592.6,396.5 c 1.8,1.5 2.7,3.6 2.7,6.3 0,2.7 -0.9,4.8 -2.4,6.6 -1.8,1.5 -4.2,2.4 -7.5,2.4 h -6 v -17.7 h 6 c 3,0.1 5.4,0.9 7.2,2.4 z m -0.6,6.7 c 0,-3.9 -2.4,-6 -6.9,-6 h -3 v 12 h 3.3 c 2.1,0 3.9,-0.6 4.8,-1.5 1.2,-1 1.8,-2.5 1.8,-4.5 z" id="path69" inkscape:connector-curvature="0"/><path d="m 613.9,409.5 c -1.8,1.8 -3.9,2.7 -6.6,2.7 -2.7,0 -4.8,-0.9 -6.6,-2.7 -1.8,-1.8 -2.7,-3.9 -2.7,-6.6 0,-2.7 0.9,-4.8 2.7,-6.6 1.8,-1.8 3.9,-2.7 6.6,-2.7 2.7,0 4.8,0.9 6.6,2.7 1.8,1.8 2.7,3.9 2.7,6.6 0,2.6 -0.9,4.8 -2.7,6.6 z m -2.1,-11.1 c -1.2,-1.2 -2.7,-1.8 -4.5,-1.8 -1.8,0 -3.3,0.6 -4.5,1.8 -1.2,1.2 -1.8,2.7 -1.8,4.5 0,1.8 0.6,3.3 1.8,4.5 1.2,1.2 2.7,1.8 4.5,1.8 1.8,0 3.3,-0.6 4.5,-1.8 1.2,-1.2 1.8,-2.7 1.8,-4.5 0,-1.5 -0.6,-3 -1.8,-4.5 z" id="path71" inkscape:connector-curvature="0"/><path d="m 623.8,411.9 h -3 v -17.7 h 4.8 l 5.4,11.1 5.4,-11.1 h 4.5 v 17.7 h -3 V 398 l -6.3,12.3 h -1.8 l -6,-12.3 v 13.9 z" id="path73" inkscape:connector-curvature="0"/><path d="m 383.2,422 h 3 v 17.7 h -3.3 L 373,426.8 v 12.9 h -3 V 422 h 3 l 10.2,13.2 V 422 z" id="path75" inkscape:connector-curvature="0"/><path d="m 406.3,437.4 c -1.8,1.8 -3.9,2.7 -6.6,2.7 -2.7,0 -4.8,-0.9 -6.6,-2.7 -1.8,-1.8 -2.7,-3.9 -2.7,-6.6 0,-2.7 0.9,-4.8 2.7,-6.6 1.8,-1.8 3.9,-2.7 6.6,-2.7 2.7,0 4.8,0.9 6.6,2.7 1.8,1.8 2.7,3.9 2.7,6.6 0,2.7 -0.9,4.7 -2.7,6.6 z m -2.4,-11.2 c -1.2,-1.2 -2.7,-1.8 -4.5,-1.8 -1.8,0 -3.3,0.6 -4.5,1.8 -1.2,1.2 -1.8,2.7 -1.8,4.5 0,1.8 0.6,3.3 1.8,4.5 1.2,1.2 2.7,1.8 4.5,1.8 1.8,0 3.3,-0.6 4.5,-1.8 1.2,-1.2 1.8,-2.7 1.8,-4.5 0,-1.8 -0.6,-3.2 -1.8,-4.5 z" id="path77" inkscape:connector-curvature="0"/><path d="m 419.2,424.7 v 15 h -3 v -15 h -5.4 V 422 h 13.8 v 2.7 h -5.4 z" id="path79" inkscape:connector-curvature="0"/><path d="m 438.1,424.7 v 4.8 h 7.8 v 2.7 h -7.8 v 7.2 h -3 v -17.7 h 11.7 v 2.7 h -8.7 v 0.3 z" id="path81" inkscape:connector-curvature="0"/><path d="m 465.4,437.4 c -1.8,1.8 -3.9,2.7 -6.6,2.7 -2.7,0 -4.8,-0.9 -6.6,-2.7 -1.8,-1.8 -2.7,-3.9 -2.7,-6.6 0,-2.7 0.9,-4.8 2.7,-6.6 1.8,-1.8 3.9,-2.7 6.6,-2.7 2.7,0 4.8,0.9 6.6,2.7 1.8,1.8 2.7,3.9 2.7,6.6 0,2.7 -0.9,4.7 -2.7,6.6 z m -2.1,-11.2 c -1.2,-1.2 -2.7,-1.8 -4.5,-1.8 -1.8,0 -3.3,0.6 -4.5,1.8 -1.2,1.2 -1.8,2.7 -1.8,4.5 0,1.8 0.6,3.3 1.8,4.5 1.2,1.2 2.7,1.8 4.5,1.8 1.8,0 3.3,-0.6 4.5,-1.8 1.2,-1.2 1.8,-2.7 1.8,-4.5 0,-1.8 -0.6,-3.2 -1.8,-4.5 z" id="path83" inkscape:connector-curvature="0"/><path d="m 486.4,427.7 c 0,3 -1.2,4.8 -3.9,5.4 l 4.5,6.3 h -3.9 l -4.2,-6 H 475 v 6 h -3 v -17.7 h 6.6 c 2.7,0 4.5,0.6 5.7,1.5 1.5,1.3 2.1,2.8 2.1,4.5 z m -3.9,2.8 c 0.6,-0.6 0.9,-1.5 0.9,-2.4 0,-1.2 -0.3,-1.8 -0.9,-2.4 -0.6,-0.3 -1.8,-0.6 -3.3,-0.6 h -3.9 v 6.3 h 3.6 c 1.8,-0.4 2.7,-0.7 3.6,-0.9 z" id="path85" inkscape:connector-curvature="0"/><path d="m 510.1,423.5 c 1.2,0.9 1.8,2.7 1.8,4.8 0,2.1 -0.6,3.6 -1.8,4.8 -1.2,0.9 -3.3,1.5 -5.7,1.5 h -3 v 5.1 h -3 V 422 h 6 c 2.4,0 4.5,0.7 5.7,1.5 z M 508,431 c 0.6,-0.6 0.9,-1.5 0.9,-2.7 0,-1.2 -0.3,-2.1 -1.2,-2.7 -0.9,-0.6 -1.8,-0.9 -3.6,-0.9 h -3 v 7.2 h 3.6 c 1.5,0.1 2.7,-0.2 3.3,-0.9 z" id="path87" inkscape:connector-curvature="0"/><path d="m 529.6,427.7 c 0,3 -1.2,4.8 -3.9,5.4 l 4.5,6.3 h -3.9 l -4.2,-6 h -3.9 v 6 h -3 v -17.7 h 6.6 c 2.7,0 4.5,0.6 5.7,1.5 1.8,1.3 2.1,2.8 2.1,4.5 z m -3.9,2.8 c 0.6,-0.6 0.9,-1.5 0.9,-2.4 0,-1.2 -0.3,-1.8 -0.9,-2.4 -0.6,-0.3 -1.8,-0.6 -3.3,-0.6 h -3.9 v 6.3 h 3.6 c 1.8,-0.4 3,-0.7 3.6,-0.9 z" id="path89" inkscape:connector-curvature="0"/><path d="m 549.1,437.4 c -1.8,1.8 -3.9,2.7 -6.6,2.7 -2.7,0 -4.8,-0.9 -6.6,-2.7 -1.8,-1.8 -2.7,-3.9 -2.7,-6.6 0,-2.7 0.9,-4.8 2.7,-6.6 1.8,-1.8 3.9,-2.7 6.6,-2.7 2.7,0 4.8,0.9 6.6,2.7 1.8,1.8 2.7,3.9 2.7,6.6 0,2.7 -0.9,4.7 -2.7,6.6 z M 547,426.2 c -1.2,-1.2 -2.7,-1.8 -4.5,-1.8 -1.8,0 -3.3,0.6 -4.5,1.8 -1.2,1.2 -1.8,2.7 -1.8,4.5 0,1.8 0.6,3.3 1.8,4.5 1.2,1.2 2.7,1.8 4.5,1.8 1.8,0 3.3,-0.6 4.5,-1.8 1.2,-1.2 1.8,-2.7 1.8,-4.5 0,-1.8 -0.6,-3.2 -1.8,-4.5 z" id="path91" inkscape:connector-curvature="0"/><path d="m 558.7,424.7 v 4.8 h 7.8 v 2.7 h -7.8 v 7.2 h -3 v -17.7 h 11.7 v 2.7 h -8.7 v 0.3 z" id="path93" inkscape:connector-curvature="0"/><path d="m 571.3,422 h 3 v 17.7 h -3 V 422 z" id="path95" inkscape:connector-curvature="0"/><path d="m 586.3,424.7 v 15 h -3 v -15 h -5.4 V 422 h 13.8 v 2.7 h -5.4 z" id="path97" inkscape:connector-curvature="0"/></g></g></svg>