<?xml version="1.0" encoding="utf-8"?>
<!-- Generator: Adobe Illustrator 14.0.0, SVG Export Plug-In . SVG Version: 6.00 Build 43363)  -->
<!DOCTYPE svg PUBLIC "-//W3C//DTD SVG 1.1//EN" "http://www.w3.org/Graphics/SVG/1.1/DTD/svg11.dtd">
<svg version="1.1" id="Layer_1" xmlns="http://www.w3.org/2000/svg" xmlns:xlink="http://www.w3.org/1999/xlink" x="0px" y="0px"
	 width="595.045px" height="219.36px" viewBox="0 0 595.045 219.36" enable-background="new 0 0 595.045 219.36"
	 xml:space="preserve">
<path fill-rule="evenodd" clip-rule="evenodd" fill="#F2673A" d="M595.045,186.755c0,18.008-14.598,32.605-32.606,32.605H32.606
	C14.598,219.36,0,204.763,0,186.755V32.606C0,14.598,14.598,0,32.606,0h529.833c18.009,0,32.606,14.598,32.606,32.606V186.755z"/>
<g>
	<polygon fill-rule="evenodd" clip-rule="evenodd" points="295.367,100.25 295.367,48.783 307.188,48.783 307.188,76.092 
		321.005,62.971 335.554,62.971 320.303,76.583 336.644,100.25 323.918,100.25 312.683,83.509 307.188,88.315 307.188,100.25 
		295.367,100.25 	"/>
	<path fill-rule="evenodd" clip-rule="evenodd" d="M369.499,88.386l11.778,1.642c-1.521,3.607-3.901,6.351-7.174,8.232
		c-3.256,1.893-7.345,2.828-12.251,2.828c-7.764,0-13.502-2.109-17.23-6.351c-2.941-3.391-4.42-7.681-4.42-12.845
		c0-6.184,1.938-11.024,5.811-14.523c3.859-3.499,8.753-5.249,14.663-5.249c6.644,0,11.88,1.833,15.724,5.5
		c3.832,3.667,5.668,9.275,5.509,16.836h-29.597c0.086,2.924,1.033,5.201,2.855,6.818c1.822,1.629,4.103,2.444,6.814,2.444
		c1.85,0,3.4-0.419,4.662-1.258C367.905,91.61,368.868,90.256,369.499,88.386L369.499,88.386z M370.175,78.417
		c-0.087-2.864-0.963-5.033-2.643-6.519c-1.678-1.486-3.729-2.229-6.14-2.229c-2.581,0-4.706,0.791-6.384,2.36
		c-1.68,1.558-2.512,3.691-2.482,6.387H370.175L370.175,78.417z"/>
	<path fill-rule="evenodd" clip-rule="evenodd" d="M432.124,100.25h-11.808V81.221c0-4.026-0.258-6.626-0.759-7.813
		c-0.504-1.174-1.336-2.097-2.469-2.756c-1.133-0.647-2.497-0.982-4.088-0.982c-2.053,0-3.891,0.467-5.512,1.402
		c-1.62,0.946-2.739,2.181-3.341,3.726c-0.603,1.546-0.905,4.398-0.905,8.568v16.884h-11.809V62.971h10.962v5.476
		c3.901-4.218,8.81-6.327,14.721-6.327c2.598,0,4.992,0.396,7.146,1.174c2.15,0.791,3.787,1.785,4.892,3.008
		c1.105,1.223,1.88,2.6,2.311,4.146c0.443,1.546,0.659,3.75,0.659,6.626V100.25L432.124,100.25z"/>
	<path fill-rule="evenodd" clip-rule="evenodd" d="M485.052,100.25h-10.963v-5.476c-1.821,2.132-3.973,3.714-6.454,4.757
		c-2.484,1.042-4.979,1.558-7.506,1.558c-5.136,0-9.526-1.726-13.184-5.177c-3.644-3.451-5.48-8.268-5.48-14.439
		c0-6.327,1.777-11.132,5.336-14.416c3.56-3.283,8.063-4.937,13.501-4.937c4.979,0,9.298,1.737,12.942,5.201V48.783h11.808V100.25
		L485.052,100.25z M453.53,80.801c0,3.978,0.66,6.854,1.979,8.64c1.894,2.564,4.563,3.858,7.977,3.858
		c2.727,0,5.037-0.971,6.944-2.9c1.894-1.929,2.855-4.817,2.855-8.651c0-4.278-0.932-7.37-2.77-9.251
		c-1.851-1.881-4.218-2.828-7.115-2.828c-2.798,0-5.136,0.935-7.03,2.792C454.477,74.319,453.53,77.098,453.53,80.801L453.53,80.801
		z"/>
	<path fill-rule="evenodd" clip-rule="evenodd" d="M508.021,100.25h-11.807V62.971h10.96v5.296c1.88-2.505,3.572-4.158,5.063-4.949
		c1.508-0.791,3.201-1.198,5.109-1.198c2.698,0,5.279,0.623,7.775,1.87l-3.658,8.591c-1.979-1.066-3.831-1.606-5.537-1.606
		c-1.665,0-3.057,0.372-4.204,1.139c-1.161,0.754-2.052,2.133-2.711,4.122c-0.661,1.989-0.991,6.16-0.991,12.499V100.25
		L508.021,100.25z"/>
	<path fill-rule="evenodd" clip-rule="evenodd" d="M539.024,74.342l-10.717-1.617c1.204-3.606,3.271-6.267,6.213-8.004
		c2.955-1.726,7.316-2.601,13.113-2.601c5.28,0,9.195,0.527,11.779,1.57c2.566,1.042,4.39,2.361,5.437,3.966
		c1.049,1.605,1.578,4.542,1.578,8.831l-0.129,11.516c0,3.271,0.188,5.692,0.574,7.25c0.373,1.546,1.091,3.224,2.124,4.997h-11.693
		c-0.301-0.659-0.688-1.63-1.134-2.912c-0.187-0.587-0.329-0.971-0.415-1.162c-2.024,1.641-4.177,2.864-6.472,3.69
		c-2.295,0.814-4.748,1.222-7.361,1.222c-4.589,0-8.219-1.043-10.86-3.115c-2.652-2.085-3.974-4.722-3.974-7.909
		c0-2.097,0.602-3.978,1.808-5.632c1.205-1.653,2.897-2.912,5.065-3.787c2.167-0.875,5.309-1.642,9.397-2.3
		c5.509-0.863,9.339-1.678,11.463-2.421v-0.982c0-1.905-0.561-3.248-1.68-4.062c-1.118-0.803-3.227-1.21-6.34-1.21
		c-2.109,0-3.745,0.347-4.922,1.042C540.703,71.395,539.757,72.604,539.024,74.342L539.024,74.342z M554.821,82.347
		c-1.505,0.419-3.903,0.922-7.188,1.51c-3.272,0.587-5.409,1.162-6.428,1.714c-1.536,0.922-2.311,2.073-2.311,3.475
		c0,1.39,0.617,2.577,1.851,3.583c1.233,1.007,2.799,1.51,4.707,1.51c2.137,0,4.16-0.587,6.097-1.75
		c1.436-0.887,2.367-1.977,2.812-3.271c0.315-0.839,0.459-2.444,0.459-4.805V82.347L554.821,82.347z"/>
	<path fill-rule="evenodd" clip-rule="evenodd" d="M225.62,125.479v-9.229h11.934v9.229H225.62L225.62,125.479z M225.62,168.267
		v-37.676h11.934v37.676H225.62L225.62,168.267z"/>
	<path fill-rule="evenodd" clip-rule="evenodd" d="M290.843,168.267h-11.934v-19.232c0-4.07-0.261-6.699-0.769-7.896
		c-0.508-1.188-1.348-2.119-2.495-2.785c-1.145-0.652-2.522-0.992-4.132-0.992c-2.074,0-3.93,0.471-5.568,1.416
		c-1.639,0.957-2.77,2.205-3.378,3.766c-0.609,1.562-0.914,4.445-0.914,8.66v17.064H249.72v-37.676h11.078v5.535
		c3.945-4.266,8.903-6.396,14.877-6.396c2.624,0,5.045,0.4,7.221,1.188c2.175,0.799,3.829,1.805,4.945,3.041
		c1.117,1.234,1.899,2.627,2.334,4.189c0.449,1.561,0.667,3.789,0.667,6.697V168.267L290.843,168.267z"/>
	<path fill-rule="evenodd" clip-rule="evenodd" d="M302.964,125.479v-9.229h11.934v9.229H302.964L302.964,125.479z M302.964,168.267
		v-37.676h11.934v37.676H302.964L302.964,168.267z"/>
	<path fill-rule="evenodd" clip-rule="evenodd" d="M347.829,130.591v7.943h-8.149v15.186c0,3.076,0.072,4.869,0.231,5.379
		c0.16,0.508,0.508,0.92,1.059,1.258c0.552,0.328,1.232,0.498,2.016,0.498c1.116,0,2.713-0.326,4.814-0.955l1.016,7.725
		c-2.783,0.992-5.916,1.49-9.441,1.49c-2.146,0-4.089-0.305-5.814-0.896c-1.725-0.605-2.986-1.393-3.798-2.35
		c-0.813-0.957-1.364-2.252-1.683-3.889c-0.247-1.148-0.377-3.498-0.377-7.023v-16.422h-5.482v-7.943h5.482v-7.498l11.978-5.814
		v13.312H347.829L347.829,130.591z"/>
	<path fill-rule="evenodd" clip-rule="evenodd" d="M356.122,125.479v-9.229h11.936v9.229H356.122L356.122,125.479z M356.122,168.267
		v-37.676h11.936v37.676H356.122L356.122,168.267z"/>
	<path fill-rule="evenodd" clip-rule="evenodd" d="M389.227,142.083l-10.831-1.635c1.217-3.646,3.306-6.334,6.278-8.09
		c2.986-1.744,7.396-2.629,13.253-2.629c5.335,0,9.294,0.533,11.903,1.586c2.597,1.053,4.438,2.387,5.498,4.01
		c1.057,1.621,1.594,4.59,1.594,8.926l-0.131,11.639c0,3.305,0.189,5.752,0.58,7.326c0.378,1.562,1.102,3.258,2.147,5.051H407.7
		c-0.305-0.666-0.695-1.646-1.146-2.945c-0.188-0.592-0.333-0.979-0.421-1.172c-2.045,1.658-4.219,2.895-6.538,3.73
		c-2.32,0.822-4.801,1.234-7.44,1.234c-4.639,0-8.309-1.053-10.977-3.148c-2.683-2.107-4.017-4.773-4.017-7.994
		c0-2.119,0.609-4.02,1.827-5.691c1.217-1.672,2.93-2.943,5.118-3.828c2.189-0.883,5.365-1.658,9.499-2.324
		c5.567-0.871,9.439-1.697,11.585-2.447v-0.992c0-1.926-0.565-3.281-1.696-4.105c-1.13-0.812-3.264-1.223-6.409-1.223
		c-2.132,0-3.784,0.35-4.974,1.053C390.923,139.103,389.967,140.327,389.227,142.083L389.227,142.083z M405.191,150.173
		c-1.523,0.424-3.943,0.932-7.265,1.525c-3.306,0.594-5.466,1.174-6.495,1.732c-1.553,0.932-2.335,2.096-2.335,3.512
		c0,1.404,0.622,2.604,1.87,3.621c1.247,1.018,2.827,1.525,4.757,1.525c2.159,0,4.204-0.594,6.161-1.768
		c1.45-0.895,2.393-1.998,2.843-3.307c0.318-0.848,0.464-2.469,0.464-4.855V150.173L405.191,150.173z"/>
	<path fill-rule="evenodd" clip-rule="evenodd" d="M449.358,130.591v7.943h-8.148v15.186c0,3.076,0.071,4.869,0.232,5.379
		c0.158,0.508,0.508,0.92,1.057,1.258c0.552,0.328,1.235,0.498,2.017,0.498c1.118,0,2.711-0.326,4.813-0.955l1.016,7.725
		c-2.783,0.992-5.916,1.49-9.439,1.49c-2.146,0-4.088-0.305-5.813-0.896c-1.727-0.605-2.986-1.393-3.8-2.35
		c-0.812-0.957-1.363-2.252-1.682-3.889c-0.246-1.148-0.377-3.498-0.377-7.023v-16.422h-5.481v-7.943h5.481v-7.498l11.977-5.814
		v13.312H449.358L449.358,130.591z"/>
	<path fill-rule="evenodd" clip-rule="evenodd" d="M457.653,125.479v-9.229h11.933v9.229H457.653L457.653,125.479z M457.653,168.267
		v-37.676h11.933v37.676H457.653L457.653,168.267z"/>
	<path fill-rule="evenodd" clip-rule="evenodd" d="M494.237,168.267l-18.183-37.676h12.527l8.497,19.23l2.466,6.418
		c0.651-1.635,1.073-2.713,1.232-3.232c0.405-1.066,0.827-2.131,1.275-3.186l8.583-19.23h12.282l-17.937,37.676H494.237
		L494.237,168.267z"/>
	<path fill-rule="evenodd" clip-rule="evenodd" d="M556.327,156.276l11.904,1.66c-1.537,3.645-3.943,6.416-7.25,8.32
		c-3.29,1.912-7.423,2.857-12.382,2.857c-7.845,0-13.646-2.131-17.415-6.42c-2.974-3.426-4.465-7.764-4.465-12.982
		c0-6.25,1.956-11.143,5.872-14.678c3.899-3.537,8.845-5.305,14.818-5.305c6.713,0,12.005,1.852,15.893,5.559
		c3.87,3.705,5.727,9.375,5.567,17.016h-29.915c0.088,2.955,1.046,5.258,2.886,6.891c1.843,1.648,4.148,2.471,6.89,2.471
		c1.869,0,3.436-0.422,4.711-1.271C554.719,159.534,555.69,158.165,556.327,156.276L556.327,156.276z M557.008,146.198
		c-0.086-2.893-0.97-5.084-2.667-6.586c-1.696-1.502-3.771-2.252-6.207-2.252c-2.608,0-4.755,0.797-6.451,2.385
		c-1.696,1.574-2.538,3.73-2.51,6.453H557.008L557.008,146.198z"/>
</g>
<path fill-rule="evenodd" clip-rule="evenodd" fill="#166734" d="M108.747,197.044c-48.961,0-88.895-39.914-88.895-88.851
	c0-48.938,39.934-88.852,88.895-88.852c48.961,0,88.895,39.914,88.895,88.852C197.642,157.13,157.708,197.044,108.747,197.044
	L108.747,197.044z M63.438,62.781h45.766h45.767c-97.125,29.885-97.141,59.748-0.063,89.585h-45.765H63.438V62.781L63.438,62.781z"
	/>
</svg>
