<?xml version="1.0" encoding="UTF-8" standalone="no"?>
<!-- Created with Inkscape (http://www.inkscape.org/) -->

<svg
   xmlns:dc="http://purl.org/dc/elements/1.1/"
   xmlns:cc="http://creativecommons.org/ns#"
   xmlns:rdf="http://www.w3.org/1999/02/22-rdf-syntax-ns#"
   xmlns:svg="http://www.w3.org/2000/svg"
   xmlns="http://www.w3.org/2000/svg"
   xmlns:sodipodi="http://sodipodi.sourceforge.net/DTD/sodipodi-0.dtd"
   xmlns:inkscape="http://www.inkscape.org/namespaces/inkscape"
   width="66"
   height="66"
   id="svg2"
   version="1.1"
   inkscape:version="0.48.5 r10040"
   sodipodi:docname="Neues Dokument 1">
  <defs
     id="defs4" />
  <sodipodi:namedview
     id="base"
     pagecolor="#ffffff"
     bordercolor="#666666"
     borderopacity="1.0"
     inkscape:pageopacity="0.0"
     inkscape:pageshadow="2"
     inkscape:zoom="7.9195959"
     inkscape:cx="44.957519"
     inkscape:cy="25.761969"
     inkscape:document-units="px"
     inkscape:current-layer="layer1"
     showgrid="false"
     inkscape:window-width="1226"
     inkscape:window-height="838"
     inkscape:window-x="1097"
     inkscape:window-y="265"
     inkscape:window-maximized="0" />
  <metadata
     id="metadata7">
    <rdf:RDF>
      <cc:Work
         rdf:about="">
        <dc:format>image/svg+xml</dc:format>
        <dc:type
           rdf:resource="http://purl.org/dc/dcmitype/StillImage" />
        <dc:title></dc:title>
      </cc:Work>
    </rdf:RDF>
  </metadata>
  <g
     inkscape:label="Ebene 1"
     inkscape:groupmode="layer"
     id="layer1"
     transform="translate(0,-986.36218)">
    <path
       id="path2986"
       d="m 34.389903,1003.6249 c 0.138656,-0.4161 0.277312,-0.7627 0.346639,-1.1093 0.415966,-1.1093 0.693277,-2.3572 0.693277,-3.60505 0,-0.13869 0,-0.2774 0,-0.48529 0.06933,-6.58619 -5.338233,-12.06308 -12.063019,-12.06308 -6.655458,0 -12.06302,5.40749 -12.06302,12.06308 0,0.13859 0,0.27729 0,0.48529 0.06933,1.24785 0.277311,2.49575 0.693277,3.60505 0.831933,2.5651 2.218486,5.4768 3.743695,8.1112 -4.367644,4.5064 -7.140752,10.6073 -7.140752,17.332 0,13.4496 10.953777,24.4034 24.40335,24.4034 13.449573,0 24.403349,-10.9538 24.403349,-24.4034 0.06933,-13.0336 -10.121843,-23.6406 -23.016796,-24.3339 z m -5.823526,13.3108 h 8.943274 c 0.554621,2.8424 0.901259,6.2395 0.901259,10.3992 H 27.665117 c 0.06933,-4.1597 0.415966,-7.626 0.90126,-10.3992 z m -5.199577,5.061 c 0,0 1.594537,-2.08 3.674368,-5.061 h 0.138656 c -0.554622,2.9117 -0.901261,6.2395 -0.901261,10.3992 h -8.457979 c 0.06933,-3.397 0.970588,-6.7941 2.287814,-9.9139 1.871848,2.7732 3.258402,4.5757 3.258402,4.5757 z m -6.863442,5.3382 h -5.338234 c 0.138656,-3.8131 1.178572,-7.3488 3.050419,-10.3992 h 4.783613 c -1.52521,3.1891 -2.42647,6.7942 -2.495798,10.3992 z m 9.844532,1.2479 c 0,4.1596 0.346639,7.5567 0.901261,10.3991 h -6.863442 c -1.525209,-3.2583 -2.495798,-6.794 -2.565125,-10.3991 h 8.527306 z m 1.109244,11.7857 c 0.970588,4.4369 2.357141,7.3487 3.743696,9.4979 -0.207983,0 -0.415967,0 -0.62395,-0.069 -3.813023,-1.5946 -7.21008,-5.061 -9.567222,-9.4286 h 6.447476 z m 0.207983,-11.7857 H 38.41091 c -0.06933,4.1596 -0.415967,7.626 -0.901259,10.3991 h -9.012602 c -0.485293,-2.7731 -0.831932,-6.2395 -0.831932,-10.3991 z m 10.884448,11.7164 h 6.447477 c -2.287814,4.3676 -5.684872,7.7647 -9.497895,9.3592 -0.207983,0.069 -0.485294,0.069 -0.693276,0.069 1.386553,-2.0798 2.773107,-4.9223 3.743694,-9.4286 z m 0.277312,-1.3173 c 0.554622,-2.9117 0.901259,-6.2395 0.901259,-10.3991 h 8.527307 c -0.138654,3.6051 -1.109243,7.2794 -2.565124,10.3991 h -6.863442 z m 0,-22.0462 h 6.863442 c 1.525209,3.2585 2.495797,6.7942 2.565124,10.3992 h -8.596634 c 0,-4.1597 -0.346639,-7.5568 -0.831932,-10.3992 z m 10.745793,11.6471 h 5.338233 c -0.138656,3.8131 -1.178571,7.3487 -3.050419,10.3991 h -4.783612 c 1.455883,-3.1197 2.357142,-6.794 2.495798,-10.3991 z m 0,-1.2479 c -0.06933,-3.605 -1.039915,-7.1407 -2.495798,-10.3992 h 4.85294 c 1.80252,3.1198 2.911763,6.5861 3.050419,10.3992 H 49.57267 z m -3.050419,-11.7164 c -1.802519,-3.4664 -4.298317,-6.4475 -7.071425,-8.5274 4.783611,1.456 8.873945,4.5063 11.716382,8.5274 h -4.644957 z m -11.092432,-9.4287 c 3.813024,1.5947 7.210081,5.0611 9.567223,9.4287 h -6.447477 c -0.970587,-4.4369 -2.357141,-7.3487 -3.743694,-9.4979 0.207982,0 0.415966,0 0.623948,0.069 z m 1.80252,9.4287 h -8.388651 c 0.207983,-0.7626 0.346639,-1.4559 0.554621,-2.1492 1.386554,-2.2877 2.842436,-4.7835 3.95168,-7.2795 1.317226,2.0107 2.911762,4.8531 3.88235,9.4287 z m -18.371839,0.069 h -3.813024 c 0.693276,-0.9706 1.317227,-1.8718 2.149158,-2.7038 0.554622,0.9013 1.109243,1.8025 1.663866,2.7038 z m -2.426471,12.895 c 0.06933,3.6051 1.039917,7.1407 2.495798,10.3991 h -4.783612 c -1.802519,-3.1197 -2.911763,-6.586 -3.050419,-10.3991 h 5.338233 z m 3.119748,11.7856 c 1.802519,3.4664 4.228989,6.4477 7.002097,8.5967 -4.714283,-1.5945 -8.804618,-4.5756 -11.647054,-8.5967 h 4.644957 z m 9.289911,0 h 8.388651 c -1.109243,4.6451 -2.634452,7.5568 -4.021006,9.5673 -0.06933,0 -0.138655,0 -0.207983,0 -0.06933,0 -0.138656,0 -0.207983,0 -1.386554,-2.0798 -2.981092,-4.9222 -3.951679,-9.5673 z m 10.537811,8.5274 c 2.842435,-2.0797 5.268904,-5.1303 7.002096,-8.5967 h 4.575628 c -2.70378,4.0904 -6.724786,7.0715 -11.577724,8.5967 z M 23.3668,992.60156 c 3.327729,0 5.823527,2.70377 5.823527,5.82359 0.06933,3.25845 -2.634453,5.82345 -5.823527,5.82345 -3.189075,0 -5.823527,-2.7038 -5.823527,-5.82345 0,-3.18922 2.70378,-5.82359 5.823527,-5.82359 z"
       inkscape:connector-curvature="0" />
  </g>
</svg>
